<?xml version="1.0" standalone="no"?><svg xmlns="http://www.w3.org/2000/svg" viewBox="0 0 1440 320"><path fill="#1f56c9" fill-opacity="1" d="M0,64L0,224L49.7,224L49.7,224L99.3,224L99.3,64L149,64L149,192L198.6,192L198.6,32L248.3,32L248.3,64L297.9,64L297.9,128L347.6,128L347.6,192L397.2,192L397.2,320L446.9,320L446.9,256L496.6,256L496.6,128L546.2,128L546.2,224L595.9,224L595.9,192L645.5,192L645.5,288L695.2,288L695.2,128L744.8,128L744.8,64L794.5,64L794.5,192L844.1,192L844.1,256L893.8,256L893.8,64L943.4,64L943.4,256L993.1,256L993.1,192L1042.8,192L1042.8,32L1092.4,32L1092.4,128L1142.1,128L1142.1,288L1191.7,288L1191.7,96L1241.4,96L1241.4,64L1291,64L1291,64L1340.7,64L1340.7,288L1390.3,288L1390.3,192L1440,192L1440,320L1390.3,320L1390.3,320L1340.7,320L1340.7,320L1291,320L1291,320L1241.4,320L1241.4,320L1191.7,320L1191.7,320L1142.1,320L1142.1,320L1092.4,320L1092.4,320L1042.8,320L1042.8,320L993.1,320L993.1,320L943.4,320L943.4,320L893.8,320L893.8,320L844.1,320L844.1,320L794.5,320L794.5,320L744.8,320L744.8,320L695.2,320L695.2,320L645.5,320L645.5,320L595.9,320L595.9,320L546.2,320L546.2,320L496.6,320L496.6,320L446.9,320L446.9,320L397.2,320L397.2,320L347.6,320L347.6,320L297.9,320L297.9,320L248.3,320L248.3,320L198.6,320L198.6,320L149,320L149,320L99.3,320L99.3,320L49.7,320L49.7,320L0,320L0,320Z"></path></svg>